# xmcd CD database file
#
# Track frame offsets:
#	150
#	1239
#	17529
#	28136
#	44447
#	89673
#	108785
#	124197
#	143143
#	164157
#	175809
#	192095
#	212470
#	229257
#	249646
#	271753
#	305970
#	321101
#
# Disc length: 4699 seconds
#
# Revision: 0
# Processed by: cddbd v1.5.1PL2 Copyright (c) Steve Scherf et al.
# Submitted via: CDex 1.70beta2
#
DISCID=f9125912
DTITLE=The Big House Blues Band - Live! at the Alley Door Club
DYEAR=2006
DGENRE=Blues
TTITLE0=WGVU-Announcement
TTITLE1=Gimme Some Lovin
TTITLE2=Get A Little
TTITLE3=Talk Real Show
TTITLE4=Stormy Monday Blues
TTITLE5=People Get Ready
TTITLE6=Cold Shot
TTITLE7=Turn Me On
TTITLE8=Gimme One Reason
TTITLE9=Hey Bartender
TTITLE10=Hug You, Squeeze You
TTITLE11=Hard Lovin' Mama
TTITLE12=Ain't No Sunshine
TTITLE13=Smokin' Gun
TTITLE14=Hoochie Coochie Man
TTITLE15=Sweet Home Chicago
TTITLE16=Got My Mojo Workin'
TTITLE17=Still Got The Blues
EXTD=YEAR: 2006
EXTT0=
EXTT1=
EXTT2=
EXTT3=
EXTT4=
EXTT5=
EXTT6=
EXTT7=
EXTT8=
EXTT9=
EXTT10=
EXTT11=
EXTT12=
EXTT13=
EXTT14=
EXTT15=
EXTT16=
EXTT17=
PLAYORDER=
